<svg viewBox="0 0 960 960" xmlns="http://www.w3.org/2000/svg" xmlns:xlink="http://www.w3.org/1999/xlink" id="62eee860-5edc-42a2-a234-f99772dc6171" overflow="hidden"><g><path d="M296.545 686.483C294.913 686.483 293.234 686.347 291.523 686.073 270.96 682.772 241.607 655.645 236.664 628.69 236.424 627.383 237.289 626.13 238.596 625.891 239.902 625.654 241.156 626.516 241.396 627.823 246.282 654.473 275.636 678.651 292.285 681.323 298.493 682.319 304.093 681.17 308.052 678.087 311.073 675.734 312.921 672.35 313.257 668.559 313.879 661.518 305.359 656.059 295.493 649.738 283.895 642.307 270.751 633.885 267.765 619.688 265.269 607.821 268.683 593.125 276.462 582.249 281.323 575.453 287.17 571.322 292.927 570.617 303.001 569.39 315.205 576.098 325.572 588.577 326.81 590.067 328.045 591.687 329.245 593.411 338.919 597.071 348.423 604.91 353.939 612.338 361.391 622.374 364.469 634.889 363.086 649.537 362.485 655.897 361.143 661.406 359.951 665.323 392.773 649.673 409.956 645.819 415.404 652.791 418.342 656.551 416.67 661.562 415.053 666.409 413.79 670.196 412.483 674.113 413.944 676.095 415.591 678.329 421.422 680.446 430.736 680.161 444.069 679.743 460.68 674.419 467.736 663.469 478.966 646.042 467.627 608.79 429.213 576.615 428.195 575.762 428.061 574.245 428.913 573.227 429.765 572.209 431.283 572.073 432.301 572.928 450.48 588.154 464.4 606.132 471.497 623.549 478.413 640.522 478.513 655.625 471.779 666.075 466.436 674.367 452.52 684.29 430.887 684.97 420.713 685.287 413.127 683.095 410.071 678.95 407.129 674.958 408.914 669.608 410.488 664.887 411.703 661.245 412.959 657.479 411.611 655.754 409.842 653.489 400.961 650.557 356.814 672.183 355.917 672.621 354.842 672.461 354.113 671.78 353.384 671.098 353.152 670.036 353.53 669.112 354.86 665.862 366.065 636.739 350.075 615.207 345.916 609.607 340.011 604.474 333.857 600.952 339.396 611.348 342.765 623.784 339.3 634.748 337.225 641.313 331.126 651.173 322.83 651.427 318.933 651.551 314.886 649.715 311.12 646.13 304.27 639.61 299.54 628.433 299.351 618.317 299.25 612.794 300.039 599.349 309.526 593.705 313.174 591.536 317.365 590.944 321.73 591.484 312.582 580.542 301.782 574.374 293.508 575.392 289.168 575.923 284.38 579.442 280.372 585.047 273.448 594.728 270.272 608.251 272.47 618.698 275.041 630.923 287.284 638.767 298.085 645.688 308.802 652.555 318.925 659.04 318.046 668.984 317.592 674.12 315.091 678.701 311.005 681.883 307.125 684.907 302.107 686.483 296.545 686.483ZM318.689 596.164C316.204 596.164 313.925 596.687 311.99 597.839 304.465 602.315 304.098 614.573 304.165 618.223 304.331 627.14 308.461 636.952 314.441 642.644 317.255 645.322 320.106 646.693 322.687 646.617 327.63 646.466 332.685 639.725 334.717 633.296 337.854 623.369 334.549 609.863 326.258 597.505 323.626 596.642 321.063 596.164 318.689 596.164Z" fill="#737373"/><path d="M76.03 595.306C75.974 592.612 80.699 590.06 80.885 587.424 81.075 584.741 76.761 581.548 77.19 578.936 77.626 576.286 82.738 574.645 83.409 572.08 84.088 569.486 80.438 565.551 81.346 563.056 82.262 560.54 87.59 559.872 88.727 557.47 89.871 555.052 87.011 550.51 88.367 548.221 89.729 545.922 95.088 546.246 96.65 544.089 98.216 541.927 96.237 536.937 97.992 534.93 99.749 532.922 104.958 534.221 106.891 532.383 108.823 530.546 107.788 525.278 109.884 523.624 111.974 521.974 116.858 524.203 119.099 522.747 121.33 521.298 121.28 515.929 123.648 514.685 126.001 513.449 130.39 516.539 132.866 515.52 135.321 514.509 136.262 509.223 138.826 508.437 141.36 507.66 145.102 511.508 147.731 510.963 150.323 510.426 152.224 505.404 154.897 505.104 157.523 504.809 160.494 509.278 163.188 509.222 165.882 509.166 168.666 504.577 171.302 504.764 173.985 504.954 176.093 509.892 178.705 510.322 181.355 510.758 184.934 506.758 187.498 507.429 190.092 508.108 191.252 513.351 193.746 514.259 196.262 515.175 200.52 511.906 202.922 513.044 205.34 514.188 205.511 519.555 207.801 520.911 210.1 522.273 214.887 519.843 217.044 521.405 219.206 522.971 218.391 528.278 220.397 530.033 222.405 531.79 227.556 530.276 229.394 532.21 231.231 534.142 229.46 539.21 231.114 541.305 232.764 543.395 238.105 542.85 239.561 545.091 241.01 547.322 238.34 551.979 239.584 554.347 240.82 556.7 246.17 557.147 247.19 559.623 248.201 562.078 244.717 566.161 245.503 568.724 246.28 571.258 251.456 572.687 252.001 575.316 252.538 577.908 248.36 581.277 248.661 583.949 248.956 586.575 253.782 588.929 253.838 591.622 253.894 594.316 249.169 596.868 248.983 599.504 248.793 602.187 253.107 605.38 252.678 607.992 252.242 610.642 247.13 612.283 246.459 614.848 245.78 617.442 249.43 621.377 248.522 623.872 247.606 626.388 242.278 627.056 241.141 629.458 239.997 631.876 242.857 636.418 241.501 638.707 240.139 641.006 234.78 640.682 233.218 642.839 231.652 645.001 233.631 649.991 231.876 651.998 230.119 654.006 224.91 652.707 222.977 654.545 221.045 656.382 222.08 661.65 219.984 663.304 217.894 664.954 213.01 662.725 210.769 664.181 208.538 665.63 208.588 670.999 206.22 672.243 203.867 673.478 199.478 670.389 197.002 671.408 194.547 672.419 193.606 677.705 191.042 678.491 188.508 679.268 184.766 675.42 182.137 675.965 179.545 676.502 177.644 681.524 174.971 681.824 172.345 682.119 169.374 677.65 166.68 677.705 163.986 677.761 161.202 682.35 158.566 682.163 155.883 681.973 153.775 677.035 151.163 676.605 148.513 676.169 144.934 680.169 142.37 679.498 139.776 678.819 138.616 673.576 136.122 672.668 133.606 671.752 129.348 675.021 126.946 673.883 124.528 672.739 124.357 667.372 122.067 666.016 119.768 664.654 114.981 667.084 112.824 665.522 110.662 663.956 111.477 658.649 109.471 656.894 107.463 655.137 102.312 656.651 100.474 654.717 98.637 652.785 100.408 647.717 98.754 645.622 97.104 643.532 91.762 644.077 90.307 641.836 88.858 639.605 91.528 634.948 90.284 632.58 89.048 630.227 83.698 629.78 82.678 627.304 81.667 624.849 85.151 620.766 84.365 618.203 83.588 615.669 78.412 614.24 77.867 611.611 77.33 609.019 81.508 605.65 81.207 602.978 80.912 600.354 76.086 598 76.03 595.306Z" fill="#505050"/><g><path d="M91.372 578.78C96.733 576.52 102.277 574.609 107.974 573.063 119.236 568.285 129.792 561.87 139.349 553.942 138.756 552.012 138.208 550.067 137.703 548.106 121.162 562.392 101.329 571.833 79.956 575.671 79.954 575.671 79.953 575.672 79.952 575.673 78.63 576.672 77.395 577.693 77.19 578.937 77.052 579.776 77.407 580.677 77.942 581.6 77.944 581.604 77.948 581.606 77.952 581.605 82.492 580.9 86.971 579.959 91.372 578.78Z" fill="#737373"/><path d="M136.451 542.801C135.997 540.676 135.594 538.534 135.244 536.38 120.102 550.872 101.529 560.634 81.331 564.877 81.326 564.878 81.322 564.883 81.323 564.889 81.69 566.532 82.826 568.42 83.291 570.102 83.292 570.107 83.297 570.11 83.303 570.109 103.036 565.813 121.267 556.487 136.451 542.801Z" fill="#737373"/><path d="M88.24 558.19C105.597 553.126 121.435 543.678 134.41 530.438 134.125 527.992 133.912 525.529 133.761 523.053 132.938 523.975 132.103 524.889 131.242 525.785 119.218 538.318 104.519 547.357 88.382 552.376 88.377 552.378 88.374 552.383 88.375 552.388 88.798 554.242 89.345 556.164 88.728 557.469 88.608 557.722 88.435 557.954 88.231 558.173 88.217 558.188 88.221 558.195 88.24 558.19Z" fill="#737373"/><path d="M133.527 515.902C133.525 515.65 133.522 515.397 133.521 515.146 133.521 515.138 133.512 515.133 133.505 515.138 133.306 515.293 133.1 515.429 132.878 515.52 131.414 516.123 129.282 515.291 127.296 514.764 127.292 514.763 127.288 514.764 127.286 514.767 126.16 516.08 125.005 517.375 123.798 518.633 116.046 526.713 107.025 533.156 97.209 537.829 97.206 537.831 97.203 537.834 97.203 537.838 97.176 539.904 97.604 542.335 96.82 543.799 96.773 543.887 96.604 544.114 96.532 544.206 96.519 544.223 96.524 544.23 96.544 544.221 108.145 539.191 118.764 531.854 127.782 522.455 129.806 520.346 131.719 518.156 133.527 515.902Z" fill="#737373"/><path d="M109.873 523.614C109.391 523.994 109.067 524.578 108.844 525.258 108.841 525.267 108.852 525.275 108.86 525.27 109.854 524.543 110.848 523.789 111.813 523.016 111.821 523.01 111.816 522.997 111.806 522.998 111.049 523.046 110.378 523.215 109.873 523.614Z" fill="#737373"/><path d="M138.34 517.553C138.398 520.293 138.55 523.016 138.777 525.723 138.869 526.812 138.973 527.898 139.092 528.981 139.207 530.026 139.334 531.069 139.474 532.109 139.781 534.389 140.145 536.656 140.571 538.905 140.749 539.841 140.938 540.774 141.137 541.704 141.333 542.623 141.54 543.538 141.756 544.451 142.236 546.483 142.766 548.498 143.344 550.498 143.588 551.343 143.842 552.185 144.104 553.023 144.365 553.86 144.634 554.694 144.912 555.525 146.412 560.002 148.155 564.387 150.145 568.661 152.284 568.781 154.41 568.953 156.522 569.175 153.68 563.466 151.303 557.537 149.396 551.438 149.127 550.576 148.866 549.711 148.616 548.843 148.363 547.966 148.12 547.086 147.887 546.203 147.332 544.099 146.834 541.977 146.391 539.838 146.191 538.87 146.002 537.899 145.825 536.924 145.643 535.924 145.474 534.92 145.317 533.913 144.937 531.474 144.62 529.017 144.386 526.543 144.276 525.378 144.186 524.209 144.108 523.037 144.027 521.808 143.968 520.576 143.923 519.34 143.9 518.692 143.873 518.045 143.859 517.396 143.807 514.903 143.84 512.428 143.938 509.968 143.938 509.964 143.937 509.961 143.933 509.959 143.814 509.9 142.25 509.103 141.543 508.814 140.616 508.435 139.727 508.217 138.949 508.401 138.829 508.429 138.593 508.516 138.475 508.586 138.472 508.588 138.47 508.591 138.47 508.594 138.46 508.793 138.453 508.992 138.445 509.19 138.382 510.636 138.339 512.088 138.324 513.545 138.311 514.862 138.311 516.183 138.339 517.508 138.339 517.524 138.34 517.538 138.34 517.553Z" fill="#737373"/><path d="M148.799 520.82C148.937 523.57 149.164 526.302 149.489 529.012 149.619 530.101 149.768 531.185 149.929 532.267 150.084 533.311 150.254 534.352 150.436 535.39 150.833 537.65 151.296 539.892 151.823 542.114 152.043 543.043 152.275 543.969 152.517 544.892 152.755 545.797 153.004 546.698 153.264 547.596 155.504 555.346 158.535 562.821 162.322 569.921 164.686 570.275 167.031 570.689 169.353 571.168 164.163 562.308 160.239 552.776 157.681 542.798 157.436 541.842 157.203 540.883 156.983 539.919 156.759 538.935 156.546 537.948 156.348 536.957 155.863 534.53 155.461 532.08 155.137 529.61 154.985 528.449 154.848 527.285 154.731 526.116 154.609 524.893 154.505 523.666 154.422 522.435 154.305 520.692 154.225 518.94 154.189 517.182 154.157 515.65 154.165 514.126 154.195 512.607 154.231 510.812 154.309 509.026 154.429 507.252 154.476 506.562 154.527 505.862 154.586 505.175 154.587 505.167 154.581 505.162 154.573 505.164 153.433 505.458 152.425 506.581 151.434 507.763 150.551 508.818 149.679 509.917 148.732 510.528 148.729 510.53 148.728 510.533 148.728 510.536 148.705 511.157 148.689 511.781 148.677 512.404 148.647 513.861 148.64 515.323 148.665 516.792 148.668 516.96 148.666 517.128 148.669 517.296 148.693 518.474 148.74 519.648 148.799 520.82Z" fill="#737373"/><path d="M246.457 614.847C246.499 614.687 246.558 614.532 246.632 614.379 246.635 614.373 246.631 614.366 246.625 614.365 245.014 614.058 243.413 613.713 241.824 613.329 243.767 615.531 245.639 617.795 247.434 620.124 247.727 620.504 248.023 620.889 248.312 621.272 248.333 621.299 248.341 621.295 248.33 621.263 248.214 620.916 248.074 620.56 247.924 620.203 247.139 618.33 246.061 616.361 246.457 614.847Z" fill="#737373"/><path d="M159.085 519.736C159.146 521.086 159.239 522.43 159.349 523.77 159.574 526.507 159.902 529.222 160.33 531.91 160.501 532.982 160.684 534.051 160.887 535.114 161.085 536.15 161.295 537.182 161.523 538.209 164.25 550.509 169.13 562.155 175.948 572.703 178.811 573.45 181.634 574.296 184.42 575.226 174.985 562.56 168.689 547.932 165.991 532.315 165.792 531.164 165.615 530.007 165.456 528.846 165.29 527.635 165.145 526.418 165.021 525.197 164.746 522.476 164.573 519.732 164.516 516.967 164.505 516.452 164.507 515.941 164.504 515.428 164.494 513.636 164.53 511.855 164.612 510.085 164.632 509.658 164.651 509.231 164.676 508.805 164.677 508.796 164.67 508.791 164.662 508.796 164.168 509.05 163.675 509.212 163.185 509.222 162.939 509.227 162.689 509.184 162.439 509.12 161.401 508.857 160.331 508.075 159.263 507.262 159.255 507.256 159.248 507.259 159.247 507.269 159.058 509.94 158.969 512.637 158.982 515.356 158.985 515.93 158.984 516.504 158.996 517.08 159.016 517.969 159.046 518.853 159.085 519.736Z" fill="#737373"/><path d="M219.869 593.416C225.347 597.37 230.51 601.736 235.32 606.465 240.455 608.17 245.745 609.443 251.146 610.261 251.149 610.261 251.152 610.261 251.154 610.259 251.935 609.563 252.539 608.828 252.676 607.993 252.844 606.969 252.282 605.856 251.55 604.72 251.548 604.718 251.546 604.716 251.543 604.716 240.316 602.956 229.605 599.132 219.869 593.416Z" fill="#737373"/><path d="M169.367 518.052C169.414 519.497 169.492 520.937 169.601 522.37 169.704 523.714 169.83 525.055 169.987 526.387 172.289 545.83 180.378 563.887 193.32 578.564 199.645 581.2 205.731 584.306 211.523 587.854 208.5 585.597 205.585 583.161 202.822 580.511 185.635 564.023 175.711 541.861 174.902 517.976 174.888 517.568 174.855 517.163 174.847 516.754 174.819 515.399 174.827 514.051 174.858 512.709 174.898 510.98 174.982 509.262 175.119 507.557 175.119 507.554 175.118 507.552 175.116 507.549 175.013 507.435 174.909 507.323 174.806 507.209 173.69 505.986 172.559 504.853 171.301 504.764 170.807 504.729 170.308 504.862 169.806 505.101 169.803 505.103 169.801 505.106 169.8 505.109 169.41 508.969 169.245 512.892 169.327 516.867 169.336 517.263 169.354 517.657 169.367 518.052Z" fill="#737373"/><path d="M206.149 577.034C218.175 588.572 232.971 596.218 248.994 599.373 249 599.374 249.005 599.37 249.006 599.365 249.223 597.703 251.168 596.072 252.527 594.417 252.532 594.411 252.528 594.402 252.521 594.401 236.568 591.77 221.825 584.419 209.978 573.055 194.502 558.209 185.626 538.148 185.179 516.54 185.117 513.538 185.234 510.574 185.495 507.65 185.496 507.643 185.489 507.637 185.482 507.64 183.631 508.306 181.567 509.941 179.77 510.289 179.766 510.29 179.762 510.294 179.762 510.298 179.652 512.399 179.615 514.519 179.659 516.655 180.135 539.704 189.583 561.141 206.149 577.034Z" fill="#737373"/><path d="M252.985 589.609C253 589.611 253.004 589.604 252.996 589.592 251.587 587.694 248.878 585.896 248.659 583.948 248.628 583.671 248.654 583.384 248.709 583.093 248.71 583.088 248.707 583.083 248.702 583.082 236.91 580.144 226.068 574.172 217.131 565.599 203.659 552.677 195.898 535.189 195.507 516.326 195.493 515.67 195.511 515.022 195.516 514.37 195.516 514.364 195.511 514.359 195.505 514.36 194.866 514.453 194.267 514.449 193.746 514.259 192.279 513.725 191.273 511.695 190.166 509.972 190.157 509.958 190.148 509.96 190.147 509.977 190.01 512.111 189.942 514.263 189.987 516.439 190.408 536.741 198.738 555.605 213.302 569.577 224.37 580.197 238.114 587.09 252.985 589.609Z" fill="#737373"/><path d="M250.972 578.681C250.976 578.682 250.981 578.68 250.983 578.676 251.68 577.495 252.213 576.343 252 575.315 251.79 574.302 250.892 573.468 249.824 572.68 249.823 572.679 249.822 572.679 249.821 572.678 240.293 570.055 231.544 565.104 224.286 558.143 213.324 547.628 206.782 533.534 205.934 518.231 205.934 518.23 205.934 518.229 205.933 518.228 205.09 516.203 204.46 513.77 202.923 513.043 202.198 512.7 201.304 512.761 200.34 512.984 200.336 512.985 200.332 512.989 200.332 512.994 200.302 514.066 200.295 515.143 200.317 516.226 200.681 533.78 207.893 550.07 220.455 562.122 229.067 570.384 239.565 576.05 250.972 578.681Z" fill="#737373"/><path d="M245.671 566.238C246.183 564.498 247.217 562.574 247.352 560.977 247.352 560.973 247.35 560.968 247.346 560.967 241.478 558.616 236.085 555.143 231.439 550.688 223.228 542.813 217.982 532.478 216.555 521.144 216.555 521.14 216.552 521.137 216.549 521.136 215.125 520.544 212.969 521.063 211.017 521.268 211.011 521.269 211.008 521.274 211.008 521.279 212.481 534.05 218.311 545.747 227.607 554.666 232.882 559.726 239.004 563.637 245.657 566.246 245.663 566.247 245.669 566.244 245.671 566.238Z" fill="#737373"/><path d="M239.381 551.076C239.387 551.08 239.396 551.077 239.397 551.07 239.742 548.903 240.481 546.508 239.561 545.091 238.105 542.85 232.764 543.396 231.114 541.305 229.46 539.209 231.231 534.141 229.394 532.21 228.302 531.062 226.044 531.128 223.968 531.004 223.961 531.004 223.955 531.011 223.958 531.018 226.303 537.098 229.97 542.614 234.761 547.21 236.221 548.61 237.769 549.895 239.381 551.076Z" fill="#737373"/><path d="M242.474 621.591C241.664 620.572 240.844 619.561 240.004 618.567 237.691 615.831 235.259 613.199 232.727 610.668 231.253 609.194 229.744 607.756 228.2 606.355 225.969 604.331 223.667 602.386 221.298 600.522 215.952 596.317 210.266 592.531 204.288 589.212 201.631 587.737 198.918 586.355 196.151 585.069 194.278 584.198 192.381 583.373 190.461 582.592 187.146 581.244 183.765 580.029 180.321 578.959 179.071 578.571 177.814 578.202 176.548 577.852 175.361 577.524 174.166 577.216 172.965 576.921 170.466 576.308 167.94 575.766 165.387 575.303 164.369 575.118 163.348 574.947 162.322 574.787 161.305 574.628 160.283 574.482 159.259 574.348 157.059 574.06 154.843 573.826 152.611 573.652 151.693 573.58 150.771 573.522 149.848 573.47 148.921 573.418 147.99 573.378 147.058 573.346 145.596 573.296 144.13 573.262 142.656 573.262 141.763 573.262 140.874 573.271 139.977 573.29 129.468 573.508 119.281 575.007 109.555 577.62 103.845 579.154 98.295 581.07 92.934 583.346 88.349 585.294 83.899 587.496 79.608 589.946 79.607 589.947 79.606 589.947 79.605 589.948 78.152 591.716 75.992 593.478 76.03 595.305 76.048 596.167 76.556 596.994 77.246 597.806 77.249 597.81 77.255 597.811 77.259 597.808 95.473 586.201 116.977 579.289 140.09 578.81 143.431 578.74 146.743 578.811 150.023 579.008 150.998 579.067 151.97 579.135 152.939 579.216 153.911 579.298 154.88 579.389 155.846 579.494 158.232 579.752 160.597 580.086 162.942 580.481 164.045 580.667 165.143 580.868 166.237 581.083 167.364 581.305 168.486 581.542 169.602 581.795 172.508 582.454 175.376 583.218 178.201 584.082 179.63 584.519 181.05 584.977 182.457 585.465 184.064 586.023 185.656 586.613 187.232 587.236 193.619 589.757 199.748 592.803 205.564 596.323 208.552 598.131 211.455 600.065 214.27 602.115 218.752 605.38 223.012 608.938 227.008 612.772 227.927 613.654 228.827 614.555 229.718 615.465 230.894 616.666 232.051 617.886 233.177 619.134 234.179 620.245 235.156 621.379 236.117 622.526 237.919 624.676 239.648 626.889 241.301 629.161 241.305 629.167 241.313 629.166 241.317 629.161 242.157 627.879 244.215 627.1 245.944 626.181 245.949 626.178 245.951 626.171 245.947 626.166 245.548 625.615 245.143 625.069 244.735 624.525 243.996 623.537 243.242 622.558 242.474 621.591Z" fill="#737373"/><path d="M236.55 630.814C235.769 629.768 234.967 628.739 234.153 627.721 231.905 624.909 229.531 622.203 227.038 619.611 225.936 618.465 224.816 617.337 223.669 616.237 223.302 615.885 222.927 615.541 222.556 615.194 220.35 613.131 218.067 611.151 215.708 609.263 210.327 604.956 204.561 601.119 198.475 597.804 195.779 596.335 193.022 594.969 190.206 593.711 188.313 592.866 186.397 592.065 184.453 591.319 181.105 590.034 177.684 588.902 174.199 587.925 172.939 587.572 171.671 587.241 170.395 586.929 169.194 586.636 167.986 586.363 166.772 586.107 164.252 585.576 161.704 585.126 159.129 584.761 158.104 584.615 157.075 584.485 156.043 584.366 155.026 584.249 154.006 584.146 152.982 584.056 149.576 583.756 146.132 583.595 142.652 583.595 141.832 583.595 141.014 583.603 140.19 583.62 118.291 584.074 97.9 590.546 80.56 601.42 80.555 601.423 80.554 601.429 80.557 601.434 80.903 601.942 81.148 602.455 81.207 602.979 81.435 605.005 79.095 607.429 78.18 609.613 78.172 609.631 78.179 609.636 78.195 609.625 95.803 597.137 117.177 589.62 140.304 589.141 145.925 589.023 151.458 589.329 156.877 590.023 157.985 590.165 159.09 590.32 160.188 590.495 161.326 590.676 162.456 590.879 163.582 591.094 166.505 591.652 169.388 592.325 172.228 593.108 173.668 593.504 175.098 593.925 176.514 594.378 178.133 594.895 179.738 595.445 181.325 596.034 187.779 598.428 193.954 601.411 199.793 604.909 202.836 606.731 205.786 608.695 208.634 610.791 212.577 613.692 216.33 616.841 219.859 620.227 221.252 621.564 222.608 622.939 223.931 624.346 225.081 625.569 226.207 626.816 227.302 628.09 228.28 629.228 229.23 630.388 230.162 631.565 231.995 633.879 233.744 636.264 235.393 638.722 235.893 639.468 236.385 640.221 236.868 640.979 236.87 640.983 236.875 640.984 236.879 640.983 238.08 640.644 239.338 640.389 240.275 639.876 240.808 639.585 241.225 639.17 241.499 638.708 241.577 638.577 241.64 638.44 241.692 638.295 241.693 638.292 241.693 638.289 241.691 638.286 240.737 636.778 239.744 635.29 238.724 633.829 238.014 632.813 237.291 631.806 236.55 630.814Z" fill="#737373"/><path d="M232.398 642.93C231.726 641.891 231.037 640.865 230.331 639.851 229.591 638.788 228.832 637.739 228.055 636.705 225.894 633.83 223.591 631.071 221.158 628.431 219.738 626.891 218.277 625.39 216.771 623.936 216.687 623.855 216.606 623.772 216.521 623.691 214.431 621.686 212.255 619.771 210.009 617.941 204.641 613.566 198.848 609.702 192.701 606.424 190.013 604.991 187.256 603.672 184.44 602.468 182.537 601.655 180.608 600.892 178.651 600.189 175.284 598.978 171.842 597.932 168.333 597.061 167.07 596.748 165.797 596.461 164.518 596.193 163.309 595.94 162.096 595.702 160.873 595.49 154.945 594.464 148.855 593.929 142.649 593.929 141.901 593.929 141.155 593.936 140.404 593.952 117.858 594.42 97.061 601.88 80.039 614.23 80.033 614.234 80.033 614.242 80.039 614.246 81.655 615.439 83.652 616.529 84.264 617.967 84.266 617.973 84.273 617.975 84.279 617.971 100.242 606.685 119.595 599.905 140.519 599.472 149.47 599.284 158.18 600.275 166.505 602.295 167.945 602.645 169.375 603.021 170.791 603.432 172.413 603.902 174.018 604.413 175.606 604.961 182.058 607.19 188.222 610.06 194.024 613.492 197.124 615.325 200.121 617.319 203.002 619.465 206.406 622 209.652 624.741 212.713 627.679 214.529 629.421 216.278 631.231 217.96 633.103 219.072 634.339 220.152 635.603 221.203 636.894 222.149 638.056 223.072 639.237 223.967 640.44 226.759 644.196 229.293 648.154 231.552 652.283 231.555 652.288 231.562 652.29 231.567 652.286 231.678 652.198 231.784 652.105 231.876 652 233.447 650.205 232.034 646.026 232.84 643.616 232.841 643.613 232.841 643.61 232.839 643.608 232.693 643.379 232.544 643.155 232.398 642.93Z" fill="#737373"/><path d="M210.834 632.577C210.352 632.095 209.866 631.615 209.374 631.142 207.719 629.555 206.007 628.027 204.244 626.56 198.933 622.141 193.145 618.289 186.978 615.081 184.316 613.697 181.584 612.433 178.788 611.298 176.896 610.53 174.976 609.82 173.028 609.172 163.457 605.984 153.239 604.258 142.647 604.258 141.971 604.258 141.297 604.265 140.618 604.279 118.704 604.733 98.608 612.5 82.623 625.231 82.621 625.232 82.62 625.235 82.619 625.237 82.453 625.994 82.427 626.699 82.677 627.305 83.126 628.395 84.414 629.092 85.821 629.731 85.824 629.733 85.828 629.732 85.831 629.73 100.953 617.608 119.987 610.229 140.731 609.8 157.993 609.437 174.275 613.935 188.252 622.075 191.402 623.91 194.435 625.929 197.336 628.12 200.213 630.293 202.96 632.633 205.561 635.129 212.035 641.34 217.583 648.491 221.998 656.357 222.004 656.368 222.013 656.367 222.016 656.355 222.222 655.621 222.512 654.984 222.973 654.546 223.787 653.772 225.184 653.555 226.658 653.412 226.666 653.411 226.67 653.404 226.666 653.397 223.371 647.572 219.487 642.124 215.096 637.13 213.724 635.568 212.304 634.048 210.834 632.577Z" fill="#737373"/><path d="M142.644 614.591C142.04 614.591 141.438 614.597 140.832 614.61 121.791 615.004 104.284 621.586 90.193 632.429 90.189 632.432 90.188 632.438 90.191 632.443 90.221 632.49 90.258 632.534 90.283 632.582 91.216 634.359 89.946 637.426 89.867 639.789 89.867 639.802 89.874 639.805 89.884 639.797 103.661 627.854 121.46 620.535 140.947 620.131 163.095 619.665 183.446 628.221 198.415 642.583 204.783 648.693 210.128 655.827 214.219 663.705 214.221 663.708 214.224 663.71 214.227 663.71 216.36 663.871 218.698 664.32 219.983 663.306 220.031 663.268 220.07 663.22 220.114 663.178 220.117 663.175 220.118 663.17 220.116 663.167 215.628 653.946 209.559 645.63 202.227 638.598 186.674 623.679 165.638 614.591 142.644 614.591Z" fill="#737373"/><path d="M195.078 646.048C181.377 632.907 162.862 624.923 142.641 624.923 142.109 624.923 141.58 624.928 141.046 624.94 122.721 625.32 105.994 632.204 93.051 643.414 93.043 643.421 93.045 643.429 93.055 643.431 95.122 644.02 97.643 644.283 98.717 645.58 98.728 645.594 98.808 645.714 98.844 645.769 98.847 645.774 98.853 645.774 98.857 645.771 110.549 636.44 125.211 630.791 141.159 630.46 160.445 630.053 178.191 637.492 191.264 650.034 197.731 656.239 202.991 663.641 206.71 671.87 206.713 671.876 206.721 671.878 206.726 671.873 208.19 670.54 208.581 667.377 209.68 665.433 209.682 665.43 209.682 665.427 209.68 665.424 205.866 658.206 200.933 651.664 195.078 646.048Z" fill="#737373"/><path d="M142.638 635.255C142.179 635.255 141.721 635.26 141.26 635.269 125.328 635.6 110.784 641.624 99.559 651.446 99.557 651.448 99.555 651.451 99.556 651.454 99.596 652.773 99.768 653.977 100.473 654.719 101.059 655.336 101.985 655.6 103.036 655.734 103.039 655.734 103.042 655.734 103.044 655.732 113.371 646.636 126.749 641.093 141.375 640.79 157.799 640.443 172.941 646.763 184.117 657.486 188.702 661.885 192.559 666.991 195.555 672.606 195.558 672.612 195.567 672.613 195.571 672.607 195.997 672.065 196.461 671.63 197 671.409 198.161 670.931 199.742 671.357 201.337 671.816 201.349 671.819 201.354 671.813 201.349 671.802 197.96 664.949 193.412 658.76 187.93 653.502 176.081 642.135 160.087 635.255 142.638 635.255Z" fill="#737373"/><path d="M142.636 645.587C142.249 645.587 141.863 645.591 141.474 645.599 129.441 645.848 118.339 649.957 109.342 656.788 109.337 656.792 109.337 656.8 109.342 656.804 109.384 656.835 109.431 656.861 109.47 656.895 110.665 657.941 110.861 660.243 111.279 662.268 111.281 662.275 111.289 662.278 111.295 662.274 119.651 655.453 130.17 651.356 141.589 651.119 155.151 650.831 167.688 656.034 176.968 664.937 180.682 668.5 183.812 672.616 186.264 677.132 186.265 677.134 186.266 677.135 186.268 677.136 187.968 677.991 189.679 678.909 191.041 678.491 191.617 678.314 192.109 677.903 192.557 677.371 192.56 677.368 192.56 677.364 192.558 677.36 189.663 671.198 185.667 665.639 180.782 660.954 170.784 651.363 157.311 645.587 142.636 645.587Z" fill="#737373"/><path d="M142.633 655.919C142.318 655.919 142.004 655.922 141.688 655.928 131.355 656.142 121.851 659.858 114.313 666.017 114.306 666.023 114.309 666.034 114.318 666.035 116.724 666.292 120.208 664.916 122.066 666.017 122.37 666.197 122.635 666.452 122.874 666.754 122.877 666.758 122.882 666.759 122.887 666.756 128.505 663.483 134.957 661.589 141.803 661.447 152.503 661.219 162.435 665.302 169.82 672.387 172.487 674.946 174.772 677.862 176.619 681.036 176.622 681.041 176.629 681.043 176.634 681.039 177.99 679.952 179.202 678.014 180.533 676.858 180.537 676.855 180.537 676.849 180.535 676.845 178.587 673.765 176.27 670.931 173.636 668.404 165.487 660.591 154.536 655.919 142.633 655.919Z" fill="#737373"/><path d="M142.63 666.25C142.387 666.25 142.146 666.252 141.902 666.258 135.728 666.386 129.927 668.141 124.912 671.152 124.908 671.155 124.906 671.16 124.908 671.165 125.421 672.382 126.017 673.445 126.945 673.884 129.249 674.974 133.254 672.024 135.798 672.587 137.807 672.103 139.887 671.822 142.017 671.778 149.523 671.617 156.562 674.329 161.965 679.185 162.193 679.39 162.67 679.843 162.733 679.904 162.737 679.908 162.742 679.908 162.746 679.904 164.06 678.813 165.38 677.732 166.679 677.705 167.408 677.69 168.158 678.011 168.916 678.476 168.945 678.494 168.951 678.488 168.929 678.461 168.16 677.555 167.348 676.684 166.487 675.859 160.19 669.819 151.76 666.25 142.63 666.25Z" fill="#737373"/><path d="M142.116 676.588C141.267 676.605 140.427 676.669 139.599 676.772 139.592 676.773 139.588 676.781 139.592 676.787 140.399 678.064 141.251 679.206 142.369 679.499 144.097 679.951 146.284 678.286 148.338 677.283 148.346 677.279 148.345 677.267 148.336 677.264 146.495 676.817 144.583 676.583 142.628 676.583 142.457 676.582 142.287 676.584 142.116 676.588Z" fill="#737373"/><path d="M139.876 568.481C135.029 568.582 130.251 568.95 125.548 569.559 130.906 566.377 136.052 562.797 140.956 558.845 142.102 562.108 143.378 565.321 144.777 568.479 143.149 568.453 141.517 568.447 139.876 568.481Z" fill="#737373"/></g></g><path d="M775.834 526.937 775.834 526.937 731.262 609.983C697.351 602.04 663.003 626.591 661.793 662.383 661.77 663.053 661.759 663.725 661.759 664.4L737.546 664.4C753.209 664.4 766.692 655.101 772.801 641.728L796.256 597.841C809.872 572.585 800.797 541.08 775.834 526.937Z" fill="#737373"/><g><path d="M662.468 625.881 662.468 625.881C662.468 625.879 662.471 625.877 662.47 625.875L612.507 530.771 612.507 530.771C587.544 544.914 578.469 576.42 592.085 601.675L596.182 609.341C570.484 613.172 548.926 634.396 547.973 662.616 547.95 663.286 547.939 663.958 547.939 664.633L623.726 664.633C645.125 664.633 662.472 647.288 662.476 625.89 662.475 625.886 662.472 625.882 662.468 625.881Z" fill="#D2D2D2"/><path d="M567.316 664.633 565.316 664.633C565.316 641.26 584.331 622.245 607.704 622.245L607.704 624.245C585.434 624.245 567.316 642.363 567.316 664.633Z" fill="#737373"/><path d="M584.789 664.633 582.789 664.633C582.789 647.556 596.682 633.662 613.76 633.662L613.76 635.662C597.785 635.663 584.789 648.659 584.789 664.633Z" fill="#737373"/></g><path d="M843.629 297.483C827.229 277.683 801.429 281.683 780.239 292.296 770.098 303.181 763.971 317.938 763.971 334.267L763.762 448.697 494.76 448.697 494.087 494.358C493.619 526.134 501.067 557.528 515.76 585.707L569.76 586.707 697.054 544.659C703.058 574.352 729.297 596.707 760.76 596.707L822.76 596.707 822.76 550.68 823.26 550.705 823.26 454.92C823.547 453.255 823.705 451.546 823.705 449.799L823.705 393.812C823.705 378.596 829.356 364.708 838.659 354.101 848.829 337.883 857.029 313.283 843.629 297.483Z"/><g><path d="M545.834 527.17 545.834 527.17 501.262 610.216C467.351 602.273 433.003 626.824 431.793 662.616 431.77 663.286 431.759 663.958 431.759 664.633L507.546 664.633C523.21 664.633 536.693 655.334 542.802 641.96L566.256 598.073C579.872 572.819 570.797 541.313 545.834 527.17Z" fill="#505050"/><path d="M451.509 664.633 449.509 664.633C449.509 641.26 468.524 622.245 491.897 622.245L491.897 624.245C469.628 624.245 451.509 642.363 451.509 664.633Z" fill="#2F2F2F"/><path d="M468.983 664.633 466.983 664.633C466.983 647.556 480.876 633.662 497.954 633.662L497.954 635.662C481.979 635.663 468.983 648.659 468.983 664.633Z" fill="#2F2F2F"/></g><path d="M862.156 287.251C868.521 292.512 873.77 299.067 877.531 306.505 881.641 314.634 883.971 323.816 883.971 333.547 865.903 333.547 849.704 341.508 838.659 354.102 835.485 347.533 833.705 340.164 833.705 332.379 833.705 330.685 833.791 329.011 833.956 327.359 833.705 327.363 833.457 327.379 833.205 327.379 809.402 327.379 788.977 312.914 780.24 292.296 790.875 280.882 805.927 273.728 823.007 273.535L823.007 273.517 823.943 273.517C838.461 273.517 851.775 278.673 862.156 287.251Z" fill="#D2D2D2"/><g><path d="M571.744 381.715 532.369 406.705 503.096 406.705C503.096 406.705 499.263 408.049 488.629 408.049 477.996 408.049 473.129 406.705 473.129 406.705L447.15 406.705 407.775 381.715C407.768 381.711 407.76 381.716 407.76 381.723L407.899 472.705 571.621 472.705 571.76 381.723C571.76 381.716 571.751 381.711 571.744 381.715Z" fill="#2F2F2F"/><path d="M503.083 406.706 503.083 406.706 473.083 406.706 473.083 407.412C473.083 437.108 404.333 472.956 404.333 472.956 404.333 472.956 443.228 516.706 491.208 516.706 539.188 516.706 578.083 472.956 578.083 472.956 578.083 472.956 503.083 437.754 503.083 406.706Z" fill="#737373"/><ellipse cx="489.52" cy="484.83" rx="48.75" ry="23.125" fill="#E6E6E6"/></g><g><path d="M515.27 479.515C510.178 483.411 500.338 485.868 489.423 486.011L489.423 469.727C489.423 469.175 488.975 468.727 488.423 468.727 487.871 468.727 487.423 469.175 487.423 469.727L487.423 486.011C476.508 485.868 466.668 483.412 461.577 479.515L460.361 481.103C465.94 485.373 476.693 488.024 488.423 488.024 500.153 488.024 510.905 485.372 516.485 481.103L515.27 479.515Z" fill="#737474"/><path d="M503.53 467.285C503.53 470.935 496.767 480.188 488.424 480.188 480.081 480.188 473.318 470.935 473.318 467.285 473.318 463.635 480.081 460.676 488.424 460.676 496.766 460.676 503.53 463.635 503.53 467.285Z" fill="#2F2F2F"/><g><circle cx="448.231" cy="446.583" r="12.122" fill="#FFC000"/><circle cx="448.231" cy="446.583" r="6.061" fill="#2F2F2F"/></g><g><circle cx="531.638" cy="446.583" r="12.122" fill="#FFC000"/><circle cx="531.638" cy="446.583" r="6.061" fill="#2F2F2F"/></g><g><path d="M456.333 475.19C455.857 475.105 408.016 466.702 347.814 469.994L347.705 467.997C408.153 464.692 456.207 473.136 456.686 473.222L456.333 475.19Z" fill="#2F2F2F"/><path d="M349.167 488.253 348.851 486.278C406.482 477.062 456.015 476.955 456.509 476.955L456.509 478.955C456.018 478.955 406.634 479.063 349.167 488.253Z" fill="#737373"/><path d="M521.686 475.19 521.333 473.221C521.811 473.136 569.866 464.696 630.314 467.996L630.205 469.993C570.002 466.703 522.162 475.104 521.686 475.19Z" fill="#2F2F2F"/><path d="M628.852 488.253C571.386 479.064 522.002 478.956 521.51 478.956L521.51 476.956C522.004 476.956 571.537 477.062 629.168 486.279L628.852 488.253Z" fill="#737373"/></g><g><rect x="480.759" y="406.687" width="2" height="25" fill="#2F2F2F"/><path d="M489.759 419.687 487.759 419.687 487.759 406.687 488.629 406.687 489.759 406.687Z" fill="#505050"/><rect x="494.759" y="406.687" width="2" height="24" fill="#505050"/></g></g><g><path d="M822.834 527.17 822.834 527.17 778.262 610.216C744.351 602.273 710.003 626.824 708.793 662.616 708.77 663.286 708.759 663.958 708.759 664.633L784.546 664.633C800.21 664.633 813.693 655.334 819.802 641.96L843.256 598.073C856.872 572.819 847.797 541.313 822.834 527.17Z" fill="#505050"/><path d="M728.51 664.633 726.51 664.633C726.51 641.26 745.525 622.245 768.898 622.245L768.898 624.245C746.628 624.245 728.51 642.363 728.51 664.633Z" fill="#2F2F2F"/><path d="M745.983 664.633 743.983 664.633C743.983 647.556 757.876 633.662 774.954 633.662L774.954 635.662C758.979 635.663 745.983 648.659 745.983 664.633Z" fill="#2F2F2F"/></g><path d="M763.005 598.622 778.116 598.622 778.116 596.805C778.116 596.75 778.071 596.705 778.016 596.705L762 596.668C725.646 596.668 696.07 567.092 696.07 530.738 696.07 512.651 703.248 495.78 716.282 483.234L714.928 481.826C701.613 494.643 694.233 511.843 694.118 530.3 693.883 567.878 725.427 598.622 763.005 598.622Z" fill="#737373"/></svg>